PathFileType	4	(X/Y/Z)	C:/Users/opensim2020/Desktop/walking_exp_matlab/subject01_walking07_straight_03.trc	
DataRate	CameraRate	NumFrames	NumMarkers	Units	OrigDataRate	OrigDataStartFrame	OrigNumFrames	
100.00	100.00	4	43	mm	100.00	2091	220	
Frame#	Time	LFHD			RFHD			LBHD			RBHD			C7			T10			CLAV			STRN			RBAK			LSHO			LUPA			LELB			LFRM			LWRA			LWRB			LFIN			RSHO			RUPA			RELB			RFRM			RWRA			RWRB			RFIN			LASI			RASI			LPSI			RPSI			LTHI			LKNE			LTIB			LANK			LHEE			LTOE			RTHI			RKNE			RTIB			RANK			RHEE			RTOE			*39			*40			*41			*42			
		X1	Y1	Z1	X2	Y2	Z2	X3	Y3	Z3	X4	Y4	Z4	X5	Y5	Z5	X6	Y6	Z6	X7	Y7	Z7	X8	Y8	Z8	X9	Y9	Z9	X10	Y10	Z10	X11	Y11	Z11	X12	Y12	Z12	X13	Y13	Z13	X14	Y14	Z14	X15	Y15	Z15	X16	Y16	Z16	X17	Y17	Z17	X18	Y18	Z18	X19	Y19	Z19	X20	Y20	Z20	X21	Y21	Z21	X22	Y22	Z22	X23	Y23	Z23	X24	Y24	Z24	X25	Y25	Z25	X26	Y26	Z26	X27	Y27	Z27	X28	Y28	Z28	X29	Y29	Z29	X30	Y30	Z30	X31	Y31	Z31	X32	Y32	Z32	X33	Y33	Z33	X34	Y34	Z34	X35	Y35	Z35	X36	Y36	Z36	X37	Y37	Z37	X38	Y38	Z38	X39	Y39	Z39	X40	Y40	Z40	X41	Y41	Z41	X42	Y42	Z42	X43	Y43	Z43	

56	0.550	1385.95105	-495.01477	1661.77576	1493.55383	-456.75522	1668.75403	1420.23767	-605.34070	1613.43787	1534.69580	-567.74646	1619.78906	1448.90820	-631.88959	1422.96399	1466.97546	-673.83197	1132.25732	1446.38696	-488.51910	1353.27173	1441.45251	-451.07956	1196.45972	1527.66626	-687.89905	1231.23145	1287.57751	-548.80237	1383.14197	1199.60852	-544.20728	1200.09973	1192.62830	-516.99530	1049.07922	1175.12830	-427.56406	973.22406	1202.56152	-303.45865	917.58221	1176.38818	-344.42868	883.52661	1170.07605	-266.34509	852.88239	1599.67285	-548.49048	1386.04077	1695.69482	-630.52850	1192.62134	1698.26697	-642.91772	1070.32117	1733.37390	-640.83350	952.26166	1725.59753	-583.83386	820.99695	1760.14758	-630.43646	832.47174	1761.44666	-611.10492	747.85815	1347.44519	-518.67004	922.33374	1563.09534	-491.87494	927.77417	1426.39294	-696.62994	936.86694	1569.93652	-676.84265	936.37518	1313.59351	-607.46857	593.88641	1334.20227	-646.84619	462.70612	1341.11218	-742.59076	296.49152	1409.23792	-810.41046	88.03243	1467.38989	-854.42145	71.42570	1399.22607	-670.91284	29.69442	1635.13318	-474.40491	600.84833	1600.92981	-411.61954	458.84598	1611.13904	-397.63895	286.67566	1567.30469	-333.98383	85.58936	1516.14001	-363.39478	32.80125	1564.23291	-188.76425	95.38087	1474.27222	-474.50134	1701.91101	-3101.89575	1973.19080	1023.41797	-3140.60107	2012.67834	1022.04608			 
57	0.560	1386.50525	-486.30206	1660.97778	1494.11304	-447.97351	1668.20105	1420.99670	-596.54315	1612.65051	1535.38525	-558.89624	1619.22009	1449.98083	-622.91687	1422.07837	1467.83826	-664.29016	1131.26782	1447.25464	-479.46478	1352.63855	1442.19019	-441.88495	1195.87097	1528.81287	-678.48578	1230.22131	1288.56519	-540.12640	1382.46863	1200.42188	-535.66388	1199.52954	1192.84448	-508.06927	1048.68286	1175.16138	-418.42206	973.04340	1202.40405	-294.18405	917.64777	1176.17834	-335.14688	883.53522	1169.68652	-256.93686	853.10962	1600.64343	-539.15692	1385.29468	1696.66492	-621.39337	1191.92371	1699.14185	-633.96796	1069.61182	1734.38257	-632.32880	951.66364	1726.62354	-575.91992	820.16919	1761.29822	-622.43408	831.88330	1762.31604	-603.34631	747.31598	1347.56885	-509.37766	921.62109	1563.23401	-481.72916	927.00983	1427.29211	-686.93958	936.02423	1570.65308	-666.73932	935.13611	1313.36023	-600.75604	593.97711	1333.75208	-641.16089	462.94455	1340.71802	-738.81879	297.98019	1408.62854	-809.44220	90.01958	1466.65930	-853.65186	74.37473	1399.06995	-670.72046	29.60449	1634.50586	-462.80347	600.45209	1599.74133	-401.36044	458.15442	1609.86719	-387.69223	285.83398	1565.66260	-323.94025	84.62765	1514.48694	-353.45584	31.77212	1562.31506	-178.73340	94.73293	1474.92114	-465.66608	1701.41687	-3101.99316	1973.02930	1023.79803	-3140.64697	2012.61206	1022.09723			 
58	0.570	1387.17542	-477.69348	1660.23877	1494.79138	-439.20993	1667.65369	1421.88257	-587.75891	1611.92798	1536.26416	-550.00580	1618.62598	1451.21265	-613.95667	1421.35693	1468.72717	-654.68658	1130.31848	1448.20459	-470.35248	1352.05042	1443.07397	-432.51898	1195.33557	1529.98486	-668.95428	1229.24622	1289.59180	-531.31433	1381.82202	1201.32056	-527.14691	1198.99695	1193.12659	-499.27972	1048.20142	1175.23596	-409.62674	972.75940	1202.25696	-285.25192	917.49475	1175.96375	-326.16693	883.35675	1169.29248	-248.02068	853.00934	1601.66907	-529.78705	1384.47083	1697.75830	-612.02118	1191.17688	1700.17236	-624.85071	1068.92859	1735.37244	-623.63666	950.95367	1727.67493	-567.62793	819.30090	1762.28931	-614.08539	831.07886	1763.19824	-595.32275	746.69342	1347.83423	-499.72549	920.94067	1563.49268	-471.40961	926.31848	1428.21143	-677.09833	935.15570	1571.53223	-656.56647	934.26215	1313.27905	-593.69379	593.96570	1333.46570	-634.78137	463.12372	1340.21289	-734.67249	299.51657	1407.89526	-808.50250	92.53667	1465.70154	-852.79193	77.41430	1398.90173	-670.61420	29.57547	1633.82251	-450.50583	600.01367	1598.69824	-390.76382	457.44220	1608.62695	-378.35339	284.62891	1563.82410	-316.16702	83.09070	1512.11853	-345.76382	30.11420	1560.70911	-170.95601	92.44514	1475.50940	-456.98138	1700.72693	-3101.90991	1973.16052	1023.28864	-3140.64648	2012.53760	1022.01178			 
59	0.580	1388.03552	-468.96375	1659.50879	1495.61609	-430.35498	1667.10681	1422.86084	-578.90186	1611.12878	1537.21301	-541.13489	1617.96802	1452.44885	-604.85583	1420.50330	1469.60840	-644.90753	1129.38379	1449.24841	-461.15921	1351.43298	1443.99951	-423.00827	1194.81726	1531.17065	-659.43103	1228.37720	1290.73706	-522.53595	1381.19800	1202.32568	-518.79987	1198.54846	1193.56824	-490.78387	1047.78003	1175.40613	-401.06531	972.31812	1202.21594	-276.71524	917.01611	1175.88428	-317.69308	882.93549	1169.06860	-239.52367	852.70721	1602.77332	-520.40430	1383.69470	1698.93359	-602.52020	1190.31299	1701.29529	-615.51855	1068.20398	1736.43982	-614.63959	950.21503	1728.80408	-558.99554	818.41718	1763.44116	-605.48230	830.42310	1764.20874	-587.02216	745.85211	1348.14709	-489.85791	920.29926	1563.90662	-460.75876	925.74048	1429.07556	-667.08459	934.36035	1572.19067	-646.13202	932.99213	1312.97217	-586.13562	593.90936	1333.15125	-627.82983	463.17838	1339.66992	-730.24835	301.02124	1406.97620	-806.97620	94.55207	1464.66577	-851.71661	80.58818	1398.70642	-670.48413	29.56694	1631.12976	-440.77963	597.61823	1597.64465	-380.21826	456.67630	1607.33203	-369.58102	283.13226	1561.77209	-310.38635	80.89770	1509.91003	-340.39148	28.57557	1559.36304	-165.15126	88.95830	1476.32935	-448.18015	1700.16772	-3101.89990	1973.10632	1023.37738	-3140.79248	2012.56555	1022.11530			 
